<svg width="1329" height="1580" viewBox="0 0 1329 1580" fill="none" xmlns="http://www.w3.org/2000/svg">
<g filter="url(#filter0_f_208_29)">
<path opacity="0.0416667" d="M294.058 671.323L362.844 357.887M431.631 44.451L362.844 357.887M362.844 357.887L619.828 606.054L1169.28 694.235L1265.59 883.856" stroke="url(#paint0_linear_208_29)"/>
<path opacity="0.0833333" d="M283.753 677.628L363.436 366.784M443.119 55.9393L363.436 366.784M363.436 366.784L611.603 623.768L1157.64 731.071L1247.28 923.937" stroke="url(#paint1_linear_208_29)"/>
<path opacity="0.125" d="M273.162 683.638L363.646 375.764M454.129 67.8903L363.646 375.764M363.646 375.764L602.692 641.253L1144.66 767.548L1227.5 963.424" stroke="url(#paint2_linear_208_29)"/>
<path opacity="0.166667" d="M262.298 689.344L363.471 384.815M464.643 80.2867L363.471 384.815M363.471 384.815L593.107 658.485L1130.33 803.617L1206.29 1002.27" stroke="url(#paint3_linear_208_29)"/>
<path opacity="0.208333" d="M251.17 694.736L362.909 393.923M474.648 93.1112L362.909 393.923M362.909 393.923L582.854 675.44L1114.69 839.233L1183.67 1040.41" stroke="url(#paint4_linear_208_29)"/>
<path opacity="0.25" d="M239.79 699.804L361.959 403.075M484.128 106.346L361.959 403.075M361.959 403.075L571.945 692.096L1097.74 874.35L1159.66 1077.81" stroke="url(#paint5_linear_208_29)"/>
<path opacity="0.291667" d="M228.168 704.541L360.619 412.256M493.069 119.971L360.619 412.256M360.619 412.256L560.39 708.43L1079.5 908.922L1134.28 1114.42" stroke="url(#paint6_linear_208_29)"/>
<path opacity="0.333333" d="M216.318 708.938L358.888 421.454M501.458 133.969L358.888 421.454M358.888 421.454L548.202 724.419L1060 942.906L1107.58 1150.19" stroke="url(#paint7_linear_208_29)"/>
<path opacity="0.375" d="M204.25 712.988L356.766 430.654M509.283 148.32L356.766 430.654M356.766 430.654L535.391 740.041L1039.25 976.257L1079.57 1185.08" stroke="url(#paint8_linear_208_29)"/>
<path opacity="0.416667" d="M191.977 716.682L354.254 439.843M516.531 163.004L354.254 439.843M354.254 439.843L521.973 755.276L1017.28 1008.93L1050.28 1219.03" stroke="url(#paint9_linear_208_29)"/>
<path opacity="0.458333" d="M179.512 720.014L351.351 449.007M523.191 178L351.351 449.007M351.351 449.007L507.96 770.101L994.117 1040.89L1019.76 1252.01" stroke="url(#paint10_linear_208_29)"/>
<path opacity="0.5" d="M166.867 722.978L348.06 458.133M529.253 193.288L348.06 458.133M348.06 458.133L493.366 784.497L969.778 1072.09L988.04 1283.98" stroke="url(#paint11_linear_208_29)"/>
<path opacity="0.541667" d="M154.055 725.568L344.381 467.208M534.706 208.848L344.381 467.208M344.381 467.208L478.209 798.444L944.293 1102.48L955.15 1314.88" stroke="url(#paint12_linear_208_29)"/>
<path opacity="0.583333" d="M141.09 727.777L340.316 476.216M539.542 224.656L340.316 476.216M340.316 476.216L462.503 811.922L917.692 1132.04L921.129 1344.69" stroke="url(#paint13_linear_208_29)"/>
<path opacity="0.625" d="M127.984 729.601L335.868 485.147M543.752 240.692L335.868 485.147M335.868 485.147L446.265 824.912L890.005 1160.72L886.019 1373.36" stroke="url(#paint14_linear_208_29)"/>
<path opacity="0.666667" d="M114.752 731.035L331.041 493.985M547.33 256.934L331.041 493.985M331.041 493.985L429.512 837.395L861.262 1188.49L849.858 1400.86" stroke="url(#paint15_linear_208_29)"/>
<path opacity="0.708333" d="M101.407 732.075L325.837 502.717M550.267 273.36L325.837 502.717M325.837 502.717L412.263 849.355L831.497 1215.3L812.688 1427.15" stroke="url(#paint16_linear_208_29)"/>
<path opacity="0.75" d="M87.9623 732.717L320.26 511.332M552.558 289.946L320.26 511.332M320.26 511.332L394.536 860.775L800.744 1241.13L774.553 1452.19" stroke="url(#paint17_linear_208_29)"/>
<path opacity="0.791667" d="M74.4326 732.958L314.315 519.815M554.197 306.671L314.315 519.815M314.315 519.815L376.351 871.637L769.036 1265.94L735.495 1475.95" stroke="url(#paint18_linear_208_29)"/>
<path opacity="0.833333" d="M60.8318 732.795L308.007 528.154M555.182 323.512L308.007 528.154M308.007 528.154L357.726 881.927L736.412 1289.69L695.562 1498.41" stroke="url(#paint19_linear_208_29)"/>
<path opacity="0.875" d="M47.1738 732.227L301.34 536.336M555.506 340.445L301.34 536.336M301.34 536.336L338.683 891.629L702.907 1312.36L654.798 1519.53" stroke="url(#paint20_linear_208_29)"/>
<path opacity="0.916667" d="M33.4731 731.251L294.321 544.349M555.169 357.448L294.321 544.349M294.321 544.349L319.241 900.729L668.56 1333.92L613.25 1539.28" stroke="url(#paint21_linear_208_29)"/>
<path opacity="0.958333" d="M19.7437 729.865L286.955 552.181M554.167 374.498L286.955 552.181M286.955 552.181L299.423 909.214L633.411 1354.33L570.968 1557.63" stroke="url(#paint22_linear_208_29)"/>
<path d="M6 728.07L279.25 559.82M552.5 391.57L279.25 559.82M279.25 559.82V917.07L597.5 1373.57L528 1574.57" stroke="url(#paint23_linear_208_29)"/>
</g>
<defs>
<filter id="filter0_f_208_29" x="0.737793" y="39.3438" width="1270.3" height="1540.39" filterUnits="userSpaceOnUse" color-interpolation-filters="sRGB">
<feFlood flood-opacity="0" result="BackgroundImageFix"/>
<feBlend mode="normal" in="SourceGraphic" in2="BackgroundImageFix" result="shape"/>
<feGaussianBlur stdDeviation="2.5" result="effect1_foregroundBlur_208_29"/>
</filter>
<linearGradient id="paint0_linear_208_29" x1="257.445" y1="224.825" x2="1108.42" y2="1046.61" gradientUnits="userSpaceOnUse">
<stop offset="0.489583" stop-color="#FF3297"/>
<stop offset="1" stop-opacity="0"/>
</linearGradient>
<linearGradient id="paint1_linear_208_29" x1="262.745" y1="230.125" x2="1084.53" y2="1081.1" gradientUnits="userSpaceOnUse">
<stop offset="0.489583" stop-color="#FF3297"/>
<stop offset="1" stop-opacity="0"/>
</linearGradient>
<linearGradient id="paint2_linear_208_29" x1="267.785" y1="235.675" x2="1059.37" y2="1114.82" gradientUnits="userSpaceOnUse">
<stop offset="0.489583" stop-color="#FF3297"/>
<stop offset="1" stop-opacity="0"/>
</linearGradient>
<linearGradient id="paint3_linear_208_29" x1="272.558" y1="241.466" x2="1032.98" y2="1147.7" gradientUnits="userSpaceOnUse">
<stop offset="0.489583" stop-color="#FF3297"/>
<stop offset="1" stop-opacity="0"/>
</linearGradient>
<linearGradient id="paint4_linear_208_29" x1="277.054" y1="247.488" x2="1005.38" y2="1179.71" gradientUnits="userSpaceOnUse">
<stop offset="0.489583" stop-color="#FF3297"/>
<stop offset="1" stop-opacity="0"/>
</linearGradient>
<linearGradient id="paint5_linear_208_29" x1="281.267" y1="253.733" x2="976.617" y2="1210.8" gradientUnits="userSpaceOnUse">
<stop offset="0.489583" stop-color="#FF3297"/>
<stop offset="1" stop-opacity="0"/>
</linearGradient>
<linearGradient id="paint6_linear_208_29" x1="285.188" y1="260.189" x2="946.713" y2="1240.94" gradientUnits="userSpaceOnUse">
<stop offset="0.489583" stop-color="#FF3297"/>
<stop offset="1" stop-opacity="0"/>
</linearGradient>
<linearGradient id="paint7_linear_208_29" x1="288.81" y1="266.847" x2="915.705" y2="1270.09" gradientUnits="userSpaceOnUse">
<stop offset="0.489583" stop-color="#FF3297"/>
<stop offset="1" stop-opacity="0"/>
</linearGradient>
<linearGradient id="paint8_linear_208_29" x1="292.127" y1="273.695" x2="883.627" y2="1298.2" gradientUnits="userSpaceOnUse">
<stop offset="0.489583" stop-color="#FF3297"/>
<stop offset="1" stop-opacity="0"/>
</linearGradient>
<linearGradient id="paint9_linear_208_29" x1="295.132" y1="280.724" x2="850.517" y2="1325.25" gradientUnits="userSpaceOnUse">
<stop offset="0.489583" stop-color="#FF3297"/>
<stop offset="1" stop-opacity="0"/>
</linearGradient>
<linearGradient id="paint10_linear_208_29" x1="297.818" y1="287.922" x2="816.411" y2="1351.2" gradientUnits="userSpaceOnUse">
<stop offset="0.489583" stop-color="#FF3297"/>
<stop offset="1" stop-opacity="0"/>
</linearGradient>
<linearGradient id="paint11_linear_208_29" x1="300.181" y1="295.278" x2="781.351" y2="1376" gradientUnits="userSpaceOnUse">
<stop offset="0.489583" stop-color="#FF3297"/>
<stop offset="1" stop-opacity="0"/>
</linearGradient>
<linearGradient id="paint12_linear_208_29" x1="302.215" y1="302.78" x2="745.374" y2="1399.64" gradientUnits="userSpaceOnUse">
<stop offset="0.489583" stop-color="#FF3297"/>
<stop offset="1" stop-opacity="0"/>
</linearGradient>
<linearGradient id="paint13_linear_208_29" x1="303.914" y1="310.418" x2="708.524" y2="1422.07" gradientUnits="userSpaceOnUse">
<stop offset="0.489583" stop-color="#FF3297"/>
<stop offset="1" stop-opacity="0"/>
</linearGradient>
<linearGradient id="paint14_linear_208_29" x1="305.275" y1="318.178" x2="670.842" y2="1443.28" gradientUnits="userSpaceOnUse">
<stop offset="0.489583" stop-color="#FF3297"/>
<stop offset="1" stop-opacity="0"/>
</linearGradient>
<linearGradient id="paint15_linear_208_29" x1="306.293" y1="326.051" x2="632.372" y2="1463.22" gradientUnits="userSpaceOnUse">
<stop offset="0.489583" stop-color="#FF3297"/>
<stop offset="1" stop-opacity="0"/>
</linearGradient>
<linearGradient id="paint16_linear_208_29" x1="306.965" y1="334.022" x2="593.159" y2="1481.88" gradientUnits="userSpaceOnUse">
<stop offset="0.489583" stop-color="#FF3297"/>
<stop offset="1" stop-opacity="0"/>
</linearGradient>
<linearGradient id="paint17_linear_208_29" x1="307.287" y1="342.08" x2="553.247" y2="1499.23" gradientUnits="userSpaceOnUse">
<stop offset="0.489583" stop-color="#FF3297"/>
<stop offset="1" stop-opacity="0"/>
</linearGradient>
<linearGradient id="paint18_linear_208_29" x1="307.257" y1="350.214" x2="512.683" y2="1515.24" gradientUnits="userSpaceOnUse">
<stop offset="0.489583" stop-color="#FF3297"/>
<stop offset="1" stop-opacity="0"/>
</linearGradient>
<linearGradient id="paint19_linear_208_29" x1="306.872" y1="358.41" x2="471.514" y2="1529.9" gradientUnits="userSpaceOnUse">
<stop offset="0.489583" stop-color="#FF3297"/>
<stop offset="1" stop-opacity="0"/>
</linearGradient>
<linearGradient id="paint20_linear_208_29" x1="306.13" y1="366.656" x2="429.787" y2="1543.18" gradientUnits="userSpaceOnUse">
<stop offset="0.489583" stop-color="#FF3297"/>
<stop offset="1" stop-opacity="0"/>
</linearGradient>
<linearGradient id="paint21_linear_208_29" x1="305.03" y1="374.94" x2="387.551" y2="1555.06" gradientUnits="userSpaceOnUse">
<stop offset="0.489583" stop-color="#FF3297"/>
<stop offset="1" stop-opacity="0"/>
</linearGradient>
<linearGradient id="paint22_linear_208_29" x1="303.57" y1="383.249" x2="344.856" y2="1565.53" gradientUnits="userSpaceOnUse">
<stop offset="0.489583" stop-color="#FF3297"/>
<stop offset="1" stop-opacity="0"/>
</linearGradient>
<linearGradient id="paint23_linear_208_29" x1="301.75" y1="391.57" x2="301.75" y2="1574.57" gradientUnits="userSpaceOnUse">
<stop offset="0.489583" stop-color="#FF3297"/>
<stop offset="1" stop-opacity="0"/>
</linearGradient>
</defs>
</svg>
